<?xml version="1.0" standalone="no"?>
<!DOCTYPE svg PUBLIC "-//W3C//DTD SVG 20010904//EN"
 "http://www.w3.org/TR/2001/REC-SVG-20010904/DTD/svg10.dtd">
<svg version="1.0" xmlns="http://www.w3.org/2000/svg"
 width="500.000000pt" height="500.000000pt" viewBox="0 0 500.000000 500.000000"
 preserveAspectRatio="xMidYMid meet">
<metadata>
Created by potrace 1.11, written by Peter Selinger 2001-2013
</metadata>
<g transform="translate(0.000000,500.000000) scale(0.100000,-0.100000)"
fill="#000000" stroke="none">
<path d="M0 2500 l0 -2500 2500 0 2500 0 0 2500 0 2500 -2500 0 -2500 0 0
-2500z m4865 -5 l0 -2360 -2370 0 -2370 0 -3 2350 c-1 1293 0 2356 3 2363 3
10 483 12 2372 10 l2368 -3 0 -2360z"/>
<path d="M220 2495 l0 -2265 2280 0 2280 0 0 2265 0 2265 -2280 0 -2280 0 0
-2265z m3772 811 c92 -18 152 -40 201 -72 l39 -25 54 51 c30 28 60 50 67 47
16 -5 18 -418 1 -424 -5 -2 -25 31 -44 74 -94 214 -208 299 -428 318 -245 22
-375 -128 -413 -476 -15 -141 -6 -608 15 -706 48 -234 147 -327 346 -327 93
-1 141 16 196 66 70 65 87 118 92 291 l4 147 -61 0 c-54 0 -61 2 -61 20 0 20
7 20 305 20 298 0 305 0 305 -20 0 -18 -7 -20 -60 -20 l-60 0 0 -133 0 -134
-57 -55 c-104 -98 -197 -151 -340 -195 -79 -24 -104 -27 -248 -27 -138 -1
-171 2 -240 22 -305 88 -507 338 -544 675 -42 374 158 727 478 848 127 48 312
62 453 35z m-2360 -33 c11 -13 20 -71 32 -213 9 -107 16 -201 16 -208 0 -6
-10 -12 -22 -12 -20 0 -25 9 -40 72 -22 91 -75 200 -122 255 -52 60 -106 83
-194 83 l-72 0 0 -730 0 -730 60 0 c53 0 60 -2 60 -20 0 -20 -7 -20 -305 -20
-298 0 -305 0 -305 20 0 18 7 20 60 20 l60 0 0 730 0 730 -72 0 c-90 0 -138
-21 -195 -83 -60 -65 -97 -144 -133 -284 -9 -35 -15 -43 -33 -43 l-23 0 18
211 c10 117 23 218 29 225 9 12 112 14 589 14 537 0 578 -1 592 -17z m948 -11
c36 -13 95 -44 132 -69 356 -236 415 -894 112 -1250 -55 -64 -158 -134 -244
-165 -63 -22 -75 -23 -463 -26 -380 -3 -399 -2 -395 15 3 15 15 19 66 21 l62
3 0 729 0 729 -62 3 c-51 2 -63 6 -66 21 -4 17 15 18 395 15 388 -3 400 -4
463 -26z m-1170 -2712 c0 -5 -9 -10 -20 -10 -18 0 -20 -7 -20 -60 0 -33 -4
-60 -10 -60 -6 0 -10 27 -10 60 0 46 -3 60 -14 60 -8 0 -18 5 -21 10 -4 6 13
10 44 10 28 0 51 -4 51 -10z m80 -20 c0 -27 3 -30 30 -30 27 0 30 3 30 30 0
17 5 30 10 30 6 0 10 -30 10 -70 0 -40 -4 -70 -10 -70 -5 0 -10 16 -10 35 0
32 -2 35 -30 35 -28 0 -30 -3 -30 -35 0 -19 -4 -35 -10 -35 -6 0 -10 30 -10
70 0 40 4 70 10 70 6 0 10 -13 10 -30z m225 20 c-3 -5 -19 -10 -36 -10 -22 0
-29 -5 -29 -20 0 -15 7 -20 28 -21 l27 -1 -25 -7 c-15 -4 -26 -15 -28 -29 -3
-19 1 -22 27 -22 16 0 33 -4 36 -10 4 -6 -12 -10 -39 -10 l-46 0 0 70 0 70 46
0 c27 0 43 -4 39 -10z m239 -12 c36 -51 8 -118 -50 -118 l-34 0 0 70 0 70 34
0 c25 0 39 -7 50 -22z m160 0 c7 -12 6 -23 -3 -41 -10 -18 -10 -30 -2 -45 13
-25 14 -32 2 -32 -5 0 -14 14 -20 30 -5 17 -17 30 -25 30 -11 0 -16 -10 -16
-30 0 -16 -4 -30 -10 -30 -6 0 -10 30 -10 71 l0 70 36 -3 c21 -2 42 -10 48
-20z m86 -48 c0 -40 -4 -70 -10 -70 -6 0 -10 30 -10 70 0 40 4 70 10 70 6 0
10 -30 10 -70z m117 18 l32 -53 1 53 c0 28 5 52 10 52 6 0 10 -30 10 -70 0
-38 -4 -70 -10 -70 -5 0 -22 21 -37 48 l-28 47 -3 -47 c-5 -74 -22 -56 -22 22
0 39 3 70 8 70 4 0 22 -24 39 -52z m133 15 l1 -38 20 24 c11 13 24 31 29 40 5
9 12 13 15 9 4 -4 -3 -21 -15 -37 l-21 -31 27 -35 c33 -44 18 -46 -18 -3 l-27
33 -7 -32 c-11 -56 -24 -36 -24 37 0 40 4 70 10 70 6 0 10 -17 10 -37z m160
-33 c0 -40 -4 -70 -10 -70 -6 0 -10 30 -10 70 0 40 4 70 10 70 6 0 10 -30 10
-70z m117 18 l32 -53 1 53 c0 28 5 52 10 52 6 0 10 -30 10 -70 0 -38 -4 -70
-10 -70 -5 0 -22 21 -37 48 l-28 47 -3 -47 c-5 -74 -22 -56 -22 22 0 39 3 70
8 70 4 0 22 -24 39 -52z m198 43 c3 -5 -9 -11 -27 -13 -32 -3 -33 -4 -33 -48
0 -42 2 -45 28 -48 21 -3 27 1 27 17 0 11 -8 22 -17 24 -11 3 -7 5 10 6 22 1
27 -3 27 -22 0 -29 -18 -47 -46 -47 -49 0 -72 70 -38 118 15 22 58 30 69 13z
m250 -1 c4 -6 -6 -10 -24 -10 -24 0 -32 -5 -37 -25 -11 -42 3 -75 31 -75 18 0
25 5 25 19 0 11 -6 22 -12 24 -7 3 -3 6 10 6 17 1 22 -5 22 -22 0 -42 -49 -64
-78 -35 -16 16 -16 100 0 116 15 15 54 16 63 2z m161 -63 c13 -37 19 -67 14
-67 -5 0 -12 9 -15 20 -4 13 -15 20 -32 20 -16 0 -27 -7 -30 -20 -3 -11 -10
-20 -15 -20 -6 0 -8 6 -5 13 2 6 13 38 23 70 10 31 22 56 28 54 5 -2 20 -33
32 -70z m115 31 l22 -43 20 43 c12 23 25 42 29 42 4 0 8 -31 8 -70 0 -40 -4
-70 -10 -70 -5 0 -10 19 -10 43 l-1 42 -15 -27 c-8 -16 -17 -28 -19 -28 -3 0
-14 15 -25 33 l-20 32 0 -47 c0 -27 -4 -48 -10 -48 -6 0 -10 30 -10 70 0 39 4
70 10 70 5 0 19 -19 31 -42z m229 32 c0 -5 -13 -10 -30 -10 -23 0 -30 -4 -30
-20 0 -15 7 -20 28 -21 l27 -2 -27 -4 c-22 -3 -28 -10 -28 -29 0 -20 5 -24 30
-24 17 0 30 -4 30 -10 0 -5 -18 -10 -40 -10 l-40 0 0 70 0 70 40 0 c22 0 40
-4 40 -10z"/>
<path d="M2220 2520 l0 -730 88 0 c173 1 232 63 284 303 21 94 22 128 22 427
0 295 -1 334 -21 422 -51 233 -122 307 -290 308 l-83 0 0 -730z"/>
<path d="M1890 489 c0 -49 1 -50 28 -47 29 3 39 29 28 74 -5 17 -13 24 -31 24
-23 0 -25 -3 -25 -51z"/>
<path d="M2050 514 c0 -21 4 -25 23 -22 14 2 23 11 25 26 3 18 -1 22 -22 22
-21 0 -26 -5 -26 -26z"/>
<path d="M3292 502 c-10 -29 -9 -32 9 -32 20 0 23 12 10 44 -7 18 -9 16 -19
-12z"/>
</g>
</svg>
